<svg width="698" height="106" viewBox="0 0 698 106" fill="none" xmlns="http://www.w3.org/2000/svg">
<path d="M0.93 82.536V23.4H12.578V11.88H24.098V0.231995H37.154V11.88H48.674V23.4H60.45V82.536H47.394V59.368H13.858V82.536H0.93ZM13.858 46.44H47.394V24.68H35.874V13.16H25.378V24.68H13.858V46.44ZM75.93 82.536V0.231995H112.154V11.88H123.674V23.4H135.45V59.368H123.674V71.016H112.154V82.536H75.93ZM88.858 69.736H110.874V58.088H122.394V24.68H110.874V13.16H88.858V69.736ZM150.93 82.536V23.4H162.578V11.88H174.098V0.231995H187.154V11.88H198.674V23.4H210.45V82.536H197.394V59.368H163.858V82.536H150.93ZM163.858 46.44H197.394V24.68H185.874V13.16H175.378V24.68H163.858V46.44ZM225.93 82.536V69.736H272.394V59.368H237.578V47.72H225.93V35.048H237.578V23.4H285.45V36.2H238.858V46.44H273.674V58.088H285.45V71.016H273.674V82.536H225.93ZM300.93 105.064V35.048H312.578V23.4H348.674V35.048H360.45V71.016H348.674V82.536H313.858V105.064H300.93ZM313.858 69.736H347.394V36.2H313.858V69.736ZM387.578 82.536V71.016H375.93V35.048H387.578V23.4H423.674V35.048H435.45V47.72H422.394V36.2H388.858V46.44H412.154V59.368H388.858V69.736H422.394V57.96H435.45V70.888H423.674V82.536H387.578ZM462.578 82.536V71.016H450.93V35.048H462.578V23.4H498.674V35.048H510.45V47.72H497.394V36.2H463.858V46.44H487.154V59.368H463.858V69.736H497.394V57.96H510.45V70.888H498.674V82.536H462.578ZM537.578 82.536V71.016H525.93V35.048H537.578V23.4H572.522V0.231995H585.45V71.016H573.674V82.536H537.578ZM538.858 69.736H572.394V36.2H538.858V69.736ZM600.93 82.536V23.4H613.858V82.536H600.93ZM600.93 13.16V0.231995H613.858V13.16H600.93ZM638.453 82.536V71.016H626.805V35.048H638.453V23.4H674.549V35.048H686.325V69.736H697.973V82.536H685.045V71.016H674.549V82.536H638.453ZM639.733 69.736H673.269V36.2H639.733V69.736Z" fill="white"/>
</svg>
